<svg width="91" height="100" viewBox="0 0 91 100" fill="none" xmlns="http://www.w3.org/2000/svg">
<g clip-path="url(#clip0_31_130)">
<path d="M75.8333 17H15.1667C6.79035 17 0 21.847 0 27.8261V89.1739C0 95.153 6.79035 100 15.1667 100H75.8333C84.2096 100 91 95.153 91 89.1739V27.8261C91 21.847 84.2096 17 75.8333 17Z" fill="#FFA000"/>
<path d="M65.7222 11.6909H60.2323C59.4236 8.39423 57.5325 5.46404 54.8617 3.36915C52.1908 1.27426 48.8944 0.135742 45.4999 0.135742C42.1055 0.135742 38.8091 1.27426 36.1382 3.36915C33.4673 5.46404 31.5763 8.39423 30.7676 11.6909H25.2777C23.9369 11.6909 22.651 12.2236 21.7029 13.1717C20.7548 14.1198 20.2222 15.4057 20.2222 16.7465V31.9132C20.2222 33.254 20.7548 34.5399 21.7029 35.488C22.651 36.4361 23.9369 36.9687 25.2777 36.9687H65.7222C67.063 36.9687 68.3489 36.4361 69.297 35.488C70.2451 34.5399 70.7777 33.254 70.7777 31.9132V16.7465C70.7777 15.4057 70.2451 14.1198 69.297 13.1717C68.3489 12.2236 67.063 11.6909 65.7222 11.6909Z" fill="#424242"/>
<path d="M53.7329 87.0912C47.3725 88.7142 42.2885 88.2432 38.4811 85.6783C34.7137 83.1032 31.9266 78.2754 30.1199 71.1949C26.5882 57.3539 30.9428 48.8717 43.1836 45.7482C47.984 44.5234 51.9254 44.7746 55.0078 46.5019C56.7047 47.4749 57.7676 48.8015 58.1963 50.4816C58.625 52.1618 58.5818 53.5788 58.0667 54.7328C57.5916 55.8766 56.8741 56.571 55.914 56.816C54.9939 57.0508 54.1177 57.04 53.2854 56.7837C52.4828 56.4772 51.8846 55.9694 51.4906 55.2604C51.9947 53.8962 52.0936 52.614 51.7874 51.4139C51.471 50.1739 50.6008 49.352 49.177 48.9484C47.783 48.4945 46.0859 48.5228 44.0858 49.0332C39.8054 50.1254 37.0774 52.2914 35.9015 55.5314C34.7155 58.7313 34.9084 63.4115 36.4804 69.572C38.0523 75.7324 40.1003 79.918 42.6243 82.1286C45.1483 84.3393 48.5705 84.8934 52.8908 83.791C54.2909 83.4338 55.6996 82.7761 57.1168 81.8179C59.8312 79.9323 61.3648 77.1763 61.7177 73.5498L64.9935 73.8643C64.7924 75.7478 64.3202 77.4873 63.577 79.083C62.8235 80.6387 62.0084 81.8693 61.1317 82.7747C60.2549 83.6802 59.2424 84.4711 58.0942 85.1476C56.4668 86.1167 55.013 86.7646 53.7329 87.0912Z" fill="black"/>
</g>
<defs>
<clipPath id="clip0_31_130">
<rect width="91" height="100" fill="white"/>
</clipPath>
</defs>
</svg>
