<svg width="57" height="20" viewBox="0 0 57 20" fill="none" xmlns="http://www.w3.org/2000/svg">
<path d="M6.12 14.74C4 14.74 2.44667 14.1867 1.46 13.08C0.486667 11.9733 0 10.24 0 7.88C0 3.26667 2.04 0.96 6.12 0.96C7.72 0.96 8.93333 1.35333 9.76 2.14C10.2133 2.58 10.44 3.08 10.44 3.64C10.44 4.2 10.3133 4.64 10.06 4.96C9.82 5.28 9.54 5.44 9.22 5.44C8.91333 5.44 8.64 5.36667 8.4 5.22C8.17333 5.06 8.02667 4.85333 7.96 4.6C8.22667 4.21333 8.36 3.82 8.36 3.42C8.36 3.00667 8.15333 2.68 7.74 2.44C7.34 2.18667 6.80667 2.06 6.14 2.06C4.71333 2.06 3.68667 2.52 3.06 3.44C2.43333 4.34667 2.12 5.82667 2.12 7.88C2.12 9.93333 2.42667 11.4067 3.04 12.3C3.65333 13.1933 4.68 13.64 6.12 13.64C6.58667 13.64 7.08 13.5467 7.6 13.36C8.6 12.9867 9.3 12.2467 9.7 11.14L10.7 11.5C10.4867 12.0733 10.2 12.58 9.84 13.02C9.48 13.4467 9.12667 13.7667 8.78 13.98C8.43333 14.1933 8.05333 14.36 7.64 14.48C7.05333 14.6533 6.54667 14.74 6.12 14.74Z" fill="black"/>
<path d="M13.3094 2.8C13.3094 2.26667 13.196 1.90667 12.9694 1.72C12.756 1.52 12.3694 1.40667 11.8094 1.38L11.8694 0.74C12.416 0.646666 13.3694 0.4 14.7294 0L15.1494 0.22V13.28C15.5094 13.5467 16.0094 13.74 16.6494 13.86L16.5694 14.6H11.8094L11.8894 13.82C12.4627 13.7267 12.936 13.5467 13.3094 13.28V2.8Z" fill="black"/>
<path d="M19.4245 7.08C19.4245 6.54667 19.3112 6.18667 19.0845 6C18.8712 5.8 18.4845 5.68667 17.9245 5.66L17.9845 5.02C18.5312 4.92667 19.4845 4.68 20.8445 4.28L21.2645 4.5V13.28C21.6245 13.5467 22.1245 13.74 22.7645 13.86L22.6845 14.6H17.9245L18.0045 13.82C18.5779 13.7267 19.0512 13.5467 19.4245 13.28V7.08ZM21.3645 1.5C21.3645 2.32667 20.9845 2.74 20.2245 2.74C19.4779 2.74 19.1045 2.32667 19.1045 1.5C19.1045 0.659999 19.4779 0.239999 20.2245 0.239999C20.9845 0.239999 21.3645 0.659999 21.3645 1.5Z" fill="black"/>
<path d="M25.2411 7.12C25.2411 6.58667 25.1278 6.22667 24.9011 6.04C24.6878 5.84 24.3011 5.72667 23.7411 5.7L23.8011 5.06C24.0944 5.00667 24.9744 4.76667 26.4411 4.34L26.8211 4.54L27.0011 5.84C27.5878 4.85333 28.5011 4.36 29.7411 4.36C32.3011 4.36 33.5811 6.02 33.5811 9.34C33.5811 11.1 33.1744 12.4467 32.3611 13.38C31.5478 14.3 30.3744 14.76 28.8411 14.76C28.2811 14.76 27.6944 14.6467 27.0811 14.42V17.84C27.4411 18.1067 27.9411 18.3 28.5811 18.42L28.5011 19.16H23.7411L23.8211 18.38C24.3944 18.2867 24.8678 18.1067 25.2411 17.84V7.12ZM27.0811 9.36V13.42C27.5611 13.7 28.2011 13.84 29.0011 13.84C29.8011 13.84 30.4478 13.4467 30.9411 12.66C31.4344 11.8733 31.6811 10.78 31.6811 9.38C31.6811 7.96667 31.5078 6.93333 31.1611 6.28C30.8144 5.61333 30.2744 5.28 29.5411 5.28C27.9011 5.28 27.0811 6.64 27.0811 9.36Z" fill="black"/>
<path d="M36.4716 7.12C36.4716 6.58667 36.3582 6.22667 36.1316 6.04C35.9182 5.84 35.5316 5.72667 34.9716 5.7L35.0316 5.06C35.3249 5.00667 36.2049 4.76667 37.6716 4.34L38.0516 4.54L38.2316 5.84C38.8182 4.85333 39.7316 4.36 40.9716 4.36C43.5316 4.36 44.8116 6.02 44.8116 9.34C44.8116 11.1 44.4049 12.4467 43.5916 13.38C42.7782 14.3 41.6049 14.76 40.0716 14.76C39.5116 14.76 38.9249 14.6467 38.3116 14.42V17.84C38.6716 18.1067 39.1716 18.3 39.8116 18.42L39.7316 19.16H34.9716L35.0516 18.38C35.6249 18.2867 36.0982 18.1067 36.4716 17.84V7.12ZM38.3116 9.36V13.42C38.7916 13.7 39.4316 13.84 40.2316 13.84C41.0316 13.84 41.6782 13.4467 42.1716 12.66C42.6649 11.8733 42.9116 10.78 42.9116 9.38C42.9116 7.96667 42.7382 6.93333 42.3916 6.28C42.0449 5.61333 41.5049 5.28 40.7716 5.28C39.1316 5.28 38.3116 6.64 38.3116 9.36Z" fill="black"/>
<path d="M51.282 16.58C50.922 17.62 50.5154 18.36 50.062 18.8C49.6087 19.24 49.0687 19.46 48.442 19.46C47.8287 19.46 47.3287 19.3 46.942 18.98C46.5687 18.6733 46.382 18.3 46.382 17.86C46.382 17.4333 46.482 17.1133 46.682 16.9C46.882 16.6867 47.122 16.58 47.402 16.58C47.6954 16.58 47.962 16.66 48.202 16.82C48.0287 17.06 47.942 17.2933 47.942 17.52C47.942 17.76 48.0087 17.9467 48.142 18.08C48.2754 18.2267 48.4754 18.3 48.742 18.3C49.262 18.3 49.7354 17.64 50.162 16.32L50.682 14.7L47.142 6.06C46.9554 5.59333 46.442 5.28667 45.602 5.14L45.662 4.48H50.362L50.302 5.12C49.742 5.18667 49.3154 5.34667 49.022 5.6L51.522 12.16L53.662 5.6C53.3554 5.37333 52.9287 5.21333 52.382 5.12L52.442 4.48H56.642L56.582 5.12C55.6487 5.25333 55.1287 5.46667 55.022 5.76L51.282 16.58Z" fill="black"/>
</svg>
