<svg width="28" height="28" viewBox="0 0 28 28" fill="none" xmlns="http://www.w3.org/2000/svg">
<rect width="28" height="28" rx="14" fill="#FAF9F8"/>
<g clip-path="url(#clip0_11_353)">
<path d="M12.6665 14.6667C12.9528 15.0494 13.3181 15.3661 13.7375 15.5953C14.157 15.8245 14.6208 15.9607 15.0976 15.9949C15.5744 16.029 16.0529 15.9602 16.5007 15.7932C16.9486 15.6261 17.3552 15.3647 17.6932 15.0267L19.6932 13.0267C20.3004 12.398 20.6363 11.556 20.6288 10.682C20.6212 9.808 20.2706 8.97196 19.6526 8.35394C19.0345 7.73591 18.1985 7.38535 17.3245 7.37775C16.4505 7.37016 15.6085 7.70614 14.9798 8.31333L13.8332 9.45333" stroke="black" stroke-width="1.5" stroke-linecap="round" stroke-linejoin="round"/>
<path d="M15.3335 13.3333C15.0472 12.9506 14.6819 12.6339 14.2624 12.4047C13.843 12.1755 13.3791 12.0392 12.9024 12.0051C12.4256 11.971 11.9471 12.0397 11.4992 12.2068C11.0514 12.3739 10.6447 12.6353 10.3068 12.9733L8.3068 14.9733C7.69961 15.602 7.36363 16.444 7.37122 17.318C7.37881 18.192 7.72938 19.028 8.3474 19.646C8.96543 20.2641 9.80147 20.6146 10.6755 20.6222C11.5495 20.6298 12.3915 20.2938 13.0201 19.6867L14.1601 18.5467" stroke="black" stroke-width="1.5" stroke-linecap="round" stroke-linejoin="round"/>
</g>
<defs>
<clipPath id="clip0_11_353">
<rect width="16" height="16" fill="white" transform="translate(6 6)"/>
</clipPath>
</defs>
</svg>
